<mxfile host="app.diagrams.net" modified="2022-02-09T07:36:28.499Z" agent="5.0 (Windows NT 10.0; Win64; x64) AppleWebKit/537.36 (KHTML, like Gecko) Chrome/97.0.4692.99 Safari/537.36" etag="7zfhQoqIkpDmsRHBsnEi" version="16.5.3" type="github">
  <diagram id="C5RBs43oDa-KdzZeNtuy" name="Page-1">
    <mxGraphModel dx="833" dy="545" grid="1" gridSize="10" guides="1" tooltips="1" connect="1" arrows="1" fold="1" page="1" pageScale="1" pageWidth="827" pageHeight="1169" math="0" shadow="0">
      <root>
        <mxCell id="WIyWlLk6GJQsqaUBKTNV-0" />
        <mxCell id="WIyWlLk6GJQsqaUBKTNV-1" parent="WIyWlLk6GJQsqaUBKTNV-0" />
        <mxCell id="XwcIRMb4cHmLQoLkg6og-1" value="" style="shape=image;imageAspect=0;aspect=fixed;verticalLabelPosition=bottom;verticalAlign=top;image=data:image/png,iVBORw0KGgoAAAANSUhEUgAAAp8AAALHCAMAAAD/69mgAAACcFBMVEX////7+/v8+fj29vb39Pj19fX79eXy9/Dw9Pny8vLs9Ojw8PD58Njp7vXw6/Ls7Oz15+fr6+v/5szo6Oja6Pz94b/j4+PV6NTT4vjc3NzQ5c3b29vh1ef4zszf1eTg1Ob3zMrN4M3f0uXY2Nj11JrqzczczuLU1NTvx8XZzd/zxcLS0tLQ0NDWytvF18S/0u3B27nVytvnxMPMzMzqzHzvvbu+2LDTxNrmv73QxdbSwtrIyMjju7roxm2306frtrPswmnExMS0xd7pvl7fsrGtzp/JtdK0xbS8vLypzJnnulOrvtvFsM+/tMSlvN7Srq3jp6SlyZPbqafCrcu1tbWfuNvgn52wsLDgrzWbwoWZs9e7o8a6o8Wtra2ksqOtpLKoqKi/np3UlZOnp6e0m8DNlZu0msDYkY6kpKSKpc2vlLuIt23Ui4jZoA3QjImuk7ufn5+enp7CjZOsj7mCs2bXmwCampqpjLaoirWjg7HKeHSQkJCJlYhzlMKOjo6NjY2efq2RiZWfhIOce6tsjr/EcGyHh4eXdKeHgIuWc6bCaWaCgoLAZ2OAgIC/Yl5/eIJ9d4F5eXl4eHh1dXW5VlJtdmy4VFBxcXFwcHBzbXZ+aWhubm5nZ2dqZG1mZmZlZWVnYmpjY2NuVVNWXlZbVl1YWFhkU1JXV1dZVFtVVVVBWTNsTQBKUElOSlBHR0dGRkY2R19ERERAQEA7QTs6QDo/O0BFOTk+Oj8zMzMvLy8uLi4tLS0nKycuJiYpJysnJycgICAZGRkSEhIQDxEKCgoJCQkICAgIBwgJBgcHBwcGBgYGBQYFBQUFBAUEBAQAAACGUPEVAAAdoklEQVR42u3djX9U1Z3H8Ws1ahSNjWAQJqA8muIKVcDCigpoFARXikgAn6EgpAhZ1AgIAVTc+tQtRVuIiq6o+9Tsst22q+2uygq70Gx+/9K+ZuY+nHPunXAnzD33zOTzLSaTSUbo4e3vd865d+71PEIIIYQQQgghhBBCCCGEEEISI4S4kWSfF2Ob/7xJ7SolPgk+CcEnwSc+CT4JwSfBJyH4JPjEJ3HPp0RfivkCiT5Hh6LwSfLzKeWPZY3l54OH+CTWfYoXHKYvfYwoSmA1/IBPkoNPFV5Ja9llaNUL3Qo+iV2fahvXq2r4rPGvmIlPYsunRGeCetH5eOKpjd4Lv1l6yUAfg0ps9nfRq2bY30Of6s/tH2BMiV2fQW3062jcZ/R4psxkTInd9VHItEL9jPad6O4kh/oZrZACoxL1dnXZ3tcY3f36tYf7P7KT/sNrr0fhRdZPEW3Vrux7KvNPaZju/nT/xlktTXbSMmtj/9MwrEF/D31G2/R6DRVpiO5+9eGdtnD6RHcevhqII/RZTRqjux9e22Q7aw8DMXufjdHdn97ZZD87afHZ+2yI7n59f0sOPlv6WSRl7bMxuvvajU15ZONaKGbrs0HW7odn5eJzFjPQjH02yM58Lu292OChmKnPBtmZ9z5qyicfQbEan9VnJj7x6fT6HZ/4xCc+8YlPfOITn/jEJz7xiU984hOf+MTnRUuT6LO/NRw8ET3EJz5r6/PWP5ao9TQ19YjIg+VP8sdbQ4RFe2L61KBSP/GZZf3s+aR4bL7n1A1NN5x6sPzVg5+0xGqnglWrn/jEZ/Y+izRLLktf3foPNyS3dyna1EniE5/Z+3zw1A3KVz2ftMR9+o1dfKUi2hwAn/jM0mcgsjT/PJVUPkV7JNRPfOZVP8N1uVoaA59BJWX+iU/L889bf92S0NrDpu7zDPu7choiPvFpYf3e05ToU5pCn/R3fObhszTx7ElcGoUepclYH+ETn5n7rOLokVA/8emGT31uGR08Ki2Pojknx4/w6UL95PwQfOITn/hMfaKSdkqI8ZXgE5/WfUZ7mklAE7/AJz4t1k/RDmUmLJeawt0lEXzi065PURyah4ZEORs5fYvHJz5r19+NU0EqniDSJGkbPD7xmd38Mzw1uUnd8qS/4zPf+ae5ahfjBCbWR/jMyadSGiXJp3LeEj7xaXn+GTuyLrF1U+U1Pj7xaW/9rvtU+3twEig+8WnZpzm1lKZEn/5P4hOflveXwvqpnr8k2pvhy+/hbGL+iU/r6yPOD8EnPgk+8YlPfOITn/jEJz7xiU98EnziE591F+6/iU+Xw/2L8elyuP87Pl3O9bk0+Jb+66GIzzR5emcOPnc+jUR8ppyBrrXOcy2zT3ymzdWHd9pt8S07D18NRHymb/H9G2fZItoya2M/zR2f1S2S1h7u/6j6/McIXtN/eC1LI3zmOJYEn/jEJ8EnPvFJ8IlPfDKWBJ/4xCfBJz7xSfCJT3wylgSf+MQnwSc+8UnwiU98MpYEn/jEJ8EnPvFJ8IlPfBJGDZ/4ZEwZaXziE58En/jEJ2HU8IlPxpSRxic+8UnwiU98EkYNn/hkTBlpfOITnwSf+MQnYdTwiU+CT3ziE58En/jEJ8EnPvFJ8IlPfDKWBJ/4xCfBJz7xSfCJT3wylgSf+MQnwSc+8UnwiU98MpYEn/jEJ8EnPvFJ8IlPfDKWBJ/4xCfBJz4bJyfO7vXE23v2BEOBTwfTPHjmtJw+M9jMUODTxRw5LyLnjzAQ+HSzgJ4TkXOUT3y6W0Apn/h0uYBSPvHpcAEdpHzi0+EC+h3lE582cs2Srftes5N9W5dcg0J8VpOH9q2ZPX6snYyfvWbfQzDEZ+pcuXW9LZw+0fVbrwQiPlNm68NjbefhrUDEZ8rmvn6s/aynxeMz3dJo3/gcfI7fxyIJn2myZM3YPLJmCRTxmWb2OTsXn7OZgeIzTXJp78UGD0V8pshrY/PJa1DEJz7xiU984hOf+MQnPvGJT3ziE5/4xCc+8YlPfOITn/jEJz7xiU984hOf+MQnPvGJT3ziE5/4rLlPKX8U9avyZ/Vx+IX5SPCJz+x8SvF/ImLi0+hVAlr6IRF84jNTn/7DKEmlsfSk9jPlp8biE582fBr1M1SoTAL0l0aS8YnPjHyq9TDq1oG8oIOL3uejyaqKGJ/4rH39LNfQwJ5KUZS6Kfo0VHlexuITnzn4FAmW9YpPUT6OFcEnPrPu75ExZb0jgVod5ljlkT8HwCc+s14fqQy1f8QosOb+ksiwE1B84rMm63fRtIk+5RwrklQ/zbqKT3xm4VNMcuaSSF8fSXS0SS50CAmf+Lwon2al1IukeVhJomf8xVPSvig+8Vmz+sn5IfjEJ8EnPvGJT3ziE5/4xCc+8YlPgk984hOf+MQnPvGJT3ziE5/4xCc+8YlPfOITn/jk/puWw/038Zkq3L8Yny6H+7/j0+Vck0uDH7/vGijiM00eWp+Dz/UPIRGfKWegD1vn+TCzT3ymzZVb19tt8ePXb70SiPhM3+L3rZlti+j42Wv20dzxWd0iacnWfa9Vn38dwWv2bV3C0gifOY4lwSc+8UnwiU98EnziE5+MJcEnPvFJ8IlPfBJ84hOfjCXBJz7xSfCJT3wSfOITn4wlwSc+8UnwiU98EnziE5+EUcMnPhlTRhqf+MQnwSc+8UkYNXzikzFlpPGJT3wSfOITn4RRwyc+GVNGGp/4xCfBJz7xSRg1fOKT4BOf+MQnwSc+8UnwiU98EnziE5+MJcEnPvFJ8IlPfBJ84hOfjCXBJz7xSfCJT3wSfOITn4wlwSc+8UnwiU98EnziE5+MJcEnPvFJ8IlPfBJ84hOfhFHDJz4ZU0Yan/jEJ8EnPvFJGDV84pMxZaTxic/GzImzez3x9p49wVDg08E0D545LafPDDYzFPh0MUfOi8j5IwwEPt0soOdE5BzlE5/uFlDKJz5dLqCUT3w6XEAHKZ/4dLiAfkf5xKeNXDV/XfcLdtK9bv5VKMRnNbm7e9mcCW12MmHOsu67YYjP1Lli3SpbOH2iq9ZdAUR8psy6+9ts5/51QMRnyua+qs1+VtHi8ZluadQ9IQefE7pZJOEzTeYva8sjy+ZDEZ9pZp9zcvE5hxkoPtMkl/ZebPBQxGeKvNCWT16AIj7xiU984hOf+MQnPvGJT3ziE5/4xCc+8YlPfOITnxeKaI9EfVL5KEkvKH0h+MRnbXy+IiLy6c1tbe+919bW9sA/36Z7K/mUMsfS5/JH1W3xs+EzBhSf+Byhz5LNT28OfUqU0Jr2SMyiqTynvRaf+KyNz9t++6ReP1VuUYNX5Slf6JzjxROf+Lw4n23vvaL61CedkUNjRiqxKSo+8ZmZz5LD394WWwhJsOBRS2aFpVLp+8w/8Vlbnzd/qtRP8Suib1LxqbrV55naVBSf+Mx2/imRwuT6qa/xtboq7C/hM8P1u7m/ZCx+1L5faSkfL6D4xOcIfSbtf4q24JFgFzTq6WLOOxXOSRUUn/gcmc+ko0cSfFA3P9WVumibSoZT5dX4xGetfYooD0QSaBrHMpW6Gtt7wic+a14/OT8En/gk+Ezh01jhJM4oL3Sak/lafOKzRj5FW3rrx9OjY+8JZ3xUeO0r77U98CcR+dMD+MTnRfsUo0JK7Ai7se650GuLPv/9gba2J3Wg+MTnCHzG1tpiFkdJpFj5tYHP8nYqPvE5cp/ibw61Bb+inq6c9inhj6V5bejzydJ5J/jEZ23W7/rBSwnP9GiTCvUz+bX4xGfWPsOjmXGfktrnK/jE58X2d+OIenQmiH5uktLf5QKvZf6Jzxqv35UzO9rMd2vG+rvI8K9l/Y7PTNbv6pF2o6VL/F3GFV/L/ic+a+bTfKOmuicvCr6k9VGl13L8CJ+1Xh+ZF2DQ3rwRzi/bUr0Wn/jMYv3O+SH4xCfBJz7xiU984hOf+MQnPvGJT4JPfOKzvsP9N/Hpcrh/MT5dDvd/x6fLuSqXBj+h+yoo4jNN7l6Vg89VdyMRnylnoPdb53k/s098ps0V61bZbfETVq27Aoj4TN/iu5fNsUV0wpxl3TR3fFa3SJq/rvuF6vOPI3hN97r5LI3wmeNYEnziE58En/jEJ8EnPvHJWBJ84hOfBJ/4xCfBJz7xyVgSfOITnwSf+MQnwSc+8clYEnziE58En/jEJ8EnPvFJGDV84pMxZaTxiU98EnziE5+EUcMnPhlTRhqf+MQnwSc+8UkYNXzikzFlpPGJT3wSfOITn4RRwyc+CT7xiU98kpr6JMSN1LwSCP+tu5aOHQc2rVg4Y3Kh5pk8Y+GKTQd2dNRRf8enY5nUu6uzkGk6d/VOwic+R5TVuzPWWRK6ezU+8Vl9Ltu2eUrBQqZs3nYZPvFZLc/eDQVL2dB7GT7xWV22WeNZKGzYhk98Vjf33FywmM2r8YnPalbuu6fY9Dll9yR84jN9ejsLVtPZi098pk7HroLl7Oqw7FOij1L5x6R8RBSfbmVHp22fnTts109RlYbHRH2N/vP+Q3y69ce59kDBeg5cm0d/F/Ox+L/EeAafDuXOTfZ9brrTHZ9BBS0V1KCO4tOZPL7Cvs8Vj1v16U8qxTP4SVA7lbrpZyY+HcnLC009on8WkcTnK0WG/bKUhS/nOf8MNYbFM6yf4fpooA+fbuTVGTFfEUTxcSpnWvriyo+fOtkxjE/tVWpmvJqDT9EmnX47j7Rq88/9Ax4+3cgbk+O8xOQWPSlldv4zFX0qP5NQRCe/kbtP7WH4bf/xTJmJT0fys6TqJ4nlMLJaiHx2nDxWeErkZEfR6sqP/XIp0fQgqcP/zLpPiXxKsk/F8Cju7m77FPEbd/Ar6ullcRLWRr+/Lzj5VGHlH1Z2nDy24DcrCwcP+j8lxue8farr9Kh+StTb1XVT3yju7q7XzwqlVAJronT7os+PDxYKB092FCvpsac6Pl4Z8ylJJdR+/Yx8av1de96vn6O6u9enTwlXRIZP+ZuPOwoHi9/53YKnjq38uEP1qb8qT5/6Ic7w+JFhtNziZWC/h09X+7u+To9W39ESXLT+3nHsYOHgsdI3Fpz824MFrX4WpMJelH2f6TO6u7vz9VNbD2mrJTGX+CWfK3+zYOUfVhaOnewoHPuvlYbPSrulDvsc5d29jtbvYV+WgtbWg2mlv790sLR+/92CQnm3SQrGaqrgwPqoiozy7u64T3VDXe3vuk9JZnfsYPhTCa+qD5+jvbvXyfpIjGqqHQgK56baSzpO+uVTRPmRpMNHDvsc9d29jtbvGcZZn6O+u+PTZZ90d3xa9Fl9ZuITn27vf+ITn/jEJz7xiU984hOf+MQnPgk+8YlPfOITn/jEJz7xiU8zP3m/xvkJPvFZQ59b2muaLfisk5w4u9cTb+/ZE/jEp4NpHjxzWk6fGWzGJz5dzJHzInL+CP0dn24W0HMicq4Zn/h0toA6VT7xSYwC6lT5xCfRC+igU+UTn0QvoN814xOfFjJmbtf2F+1ke9fcMfjEZzVZtH3ptHGtdjJu2tLti/CJz9S5vGu5LZw+0eVdl+MTnynTdW+r7dzbhU98pmzuy1vtZ/kifOIz1dJo+7gcfI7bPgaf+EyRuUtb88jSufjEZ5rZ57RcfE7rwic+UySX9l5s8PjEZ4q82JpPXsQnPuvTpyQ9TrjDigg+8ZmbT+ValjGfEsNZK5+S+BCf+NRRqndKE/VWVPo9pqv2efyQ4TFIXCU+8Zn0F2HcI1rTGNxQeqQ+j8uheL0M/tGxGm7xiU/DZ3gXXr+jR1iVYlqNz1s+P358WJ/Gk7Eiik98qnfl9bTb8cbuhlrr/q74FF0sPvGptvToPtHh/cw9w22NfFaqnyWiwvwTn/pfhERtXe3iyqJJRtzfQ5+SYv4Z14nPXH1Ka+yxGN+RZGzR08W/3PKHpNdKqvmn0cK1j6LPSkdcP+VC/T2+sMdnfj6VvcYYUIloJTiU6NXhz/s/rrzW/1L5F4zMp6eW14vyKcP199L3kxZI+MzJp1budKuhMdWwqk4Uekr91F4bq72pfKr9Xfd5kf09vlSX2GIIn071d12k/zmskiJq8Uxi2Wp8W39trD4P61PdhzcPJ5Wa/MjrZ9Lxogo+6e8O+ZTYR7Pi6T7LYv2mLsGHqAQPM0d16fwQCS3G9pKonw751FqwUj9btfqpNvdWCWtnMDvV66T6Wmd9cn5I3azflbWRZqw1WhyZq57YjCCi3qq9Vp8/4BOf1a/flU8V62fkM6yQEedWvdfr9VPSrd9z9Cnm1BOfLs0/JbEaSqg0cdfIqK+tSgk2fkaZENjw+fd/UdnnLZ+LfH5L4kHO4rZSuD2PTzfXR9JqdGu9UmrzT/Nl2v6SIVv7F2fs89z/ffjDSj4PHWq/5fNDSYv48JHg0936qZZPvX7G9pe0PSZjf958rUirvfnnz8/++fyHP6zc3w/pBdQ/3K6cHYJPV+unJG0MKfuf4Vo+auJRZ4/vz+vbTxfa/6zZ/PO/Rf58/sO/ruTz+PG4TRluNxSfea/f7eafxEKG/reCz2d+/6OYz+CkumASKpw/P4p9WqifgxXr5zP/+Vf6SSLBGql8Tp3w/o468amd11FhCZW85s/Z58//Z7Dy/PNQUD2180GS5qH4dLx+irLhritVzxXRj61LawqgWa/fByuv36PmrrXw6IyRYKcJn3XY3yX5sVQ4Ty8nn8Ptfx4v/vHK6/fEs5iE+llHPk1uiT6TTh2tp+uH6Ot2fNbN/FNazXPotN0k82fCg0hSZz7jJ9NxfLNe5p/6+Xb6ScvmXDTYGeX6S/i04lN0e8oR9+AsEfPwZSqe+MRnJvVT96meriyiHLCvA5/KWSBS6VQm87v4dHt/STljSUTv9a1xuC75PC7mlW1UfGK8m0PiZ47g01Gf6ruMog17SayfIo7sf5o+nzne/qPfPzP8WZ/Ge+BF4j+CT+d8micnGWeBKhNOSZoTONTfzUuHJPs0n9Oo4tOx/aX4e43VMz219ZFIq36KkmM+jfqpXpLBOCNZEqao+HR0f75Rru99SMxTPrX5Z7vyBs6oZrI+wqe1/l46J1nMg0ai+NQuc5NwRSZ84jM7n+XzQmQYn4ltXdj/xGfWPg8dD86ZV6/kLZFP5QINord/9coN+MRnZvuf/vxTjGuASfgw7lOMKSg+8ZlZf0/YWhLNYayvi3kVJnzi05rPxIVQ8JwkXswOn/i06JPzQ5wP99/Ep8vh/sX4dDnc/x2fLmdMLg1+3PYx+MRnmixanoPP5Ys8fOIz3Qz0Xus87+3y8InPdLm8a7ndFj9uedfl+MRn+ha/fek0W0THTVu6fVE2/zfw2bCLpLld21+0k+1dc8d4+MTn6As+CT7xSUaWNybb9zn5DXySdHl1hn2fM17FJ0mXlxfa97nwZXySdHl8hX2fKx7HJ0mXOzfZ97npTnySdLn2gH2fB67FJ0mZHZ22fXbu8PBJUqZjV8zn+zWO4XNXBz5J6vR2Fqyms9fDJ0mdSbun2OQ5ZfckfJIqsnqzTZ+bV3v4JNVk2wZ7PDds8/BJqsplvdaAbui9DJ+kWqDbNluZg07ZvC0Lnvhs/Dnobgur+M7dq7P50+Oz8VfxvbsyFtq5q3eSh08ywnTsOLBpxcIZk2svc/KMhSs2HdjRkdkfvYJPQtxIzesntZe43N/xSfBJ8IlPgk9C8EnwiU+CT4JPfBJ8ElIDn6J/Vo45Kd+JDkXhk9j0KQrDQKH/WXywPlF8Eus+JcY11CjhF/gk+fiUJK8RTvEbvgR1FJ/Enk8pt3Txgl/+OU8Sdn0x/xUz8UlyWb+LWj+VOaeEiosZ6GNQSe4+o1/6/HP/AGNK7PV35TxmCb82fUaPZ8pMxpRYXr8Hj8IVkO5Tol0oujvJa/0u0ZooqKflmhr9SB/dndj0qb5NSe/v0dwzWjHR3Uk+6yPRq6m6LAprqMjAfgaU5LV+v2Do7sRhn3R34rJPujtx2CfdnTjsk+5OXPZJdycO+6S7E4s+qw/dnbi9ficEnwSf+CT4JASfBJ+E4JPgE58En4Tgk+CTEHwSfOKT4JMQfBJ8EoJPgk98EnwSgk+CT0LwSQg+CT4JwWemQxS/XrQ5RPoV0bmVHj6tDY9xseiYPeMmJ6L9jER3hiL4zMpnhSEKL8av3xtK9clw4jPD4VFrY3R/CE+7D5QX1dXgee0D9ROfFkZItFoo6n2gRKmVotVNYTBd9nn7828ffd9Kjr79/O0Zj9BwPqMvRbvzuM36ufGLb4bESoa++WJjA/ic/vqex+bd1G4lN817bM/r0zNr8Xqz13xK8K3oCVHvaGZJ56NfneqZeImd3+uSiT2nvnq03n3e9+4j7VbzyLv3ZTBA2vo9qX56Yt4PUvzSabF+9n37hN3O+8S3ffXt864357Vbzrw378pggJR73et7R9r6KCq2en+3M51/6euJtqeGE79+qZ59Xnf0nnbruefodRmMj75dpO+Fir5JKvoevnh2fN44dIf9tcsdQzfWsc9nt7TnkC3P1n7/U8Klu2ibov4WkrGJr1RZ8X8ke58n3sljcf3Oifr1+b2jP8jD5w+Ofq/WyyMvXOpE6yNRN5LUw0eizFg1vJmmaej7efj8/lBT3fqcvqc9l+yZ7o2+PHoqn9/31KN16/O+n+bj86f3jUKffb/K5/f9VV/d+vzxlnx8bvnxKPT5zjuN+vviE5/4xGdW6/ZmfOLT3ZwdPNKMT3y6mr1nz5870oxPfDqa0yLnzx35BT7rxuffyajL4CA+qZ/UT3zis8r55xnmn/hk/Y5PfLL/ic8GDT7xiU984hOf+MQnPvGJz8byKfHHEv8OPmvsRL/OmVfdu6VGiU/lUF0MaPgLnzVyEl0XSr2iVOwd0/hUy6VSKnWr+Ky5T/UtfOq7oamfFyqhWjuX4pPtel3FZ219ev67TLXv4bPC5NP0yfoou/4evKdfvz5Ple+GHi0+pdzY28362U79zLB+hu/h969BoV3qFJ+xBm+ulny2rN+z8Bk6FO1bkt3vW9/rd+UT9dNKf1cvfeIl9Hp8xnaYzHmnhErxWev+LsZFI0OY9Pdh10diTkzxmc3807inA/tL6eqnWj6pn1nXTx0p+/MXrJ+S9B3mn7VzIuEVI9VbOlA/OT/EkfpZV78vPvGJT3ziE5/4xGfd+Gw+gU98uuqz+cjgWXzi002fzUfOnT+zF5/4dNFnUafIaeaf+HTS53eDo+8Kdv+GT+on9ROfzD/xyfodn/hk/xOf+OT4ET7xic+G88n9Ny2G+29WHe5fbDHcv7jqNMr93+si3P+9+jybywR0y7MZj1T8/Q9S6UvlYhyS8V/jiVwmoO9kv0eSnc/rjt5jn+c9R6/LcKiUd4orbxzXr1AYPq+8h9eL3mqe0Z/txqE77PO8Y+jGOvbp3fXmPNs85715l5XBil+vyL/oQexdu4rPTOvoS19PtM1z4tcvefXs07vv3Ufs8nzk3WwX70pt1GqqqO/LlQhs8H7I6Iqb2fX5vm+fsMvziW/7vPr26U1/fc9j826yY/OmeY/teX16pjaj2ui3a0+7jKb2Obr4liivyXQN/9WpnomX2LF5ycSeU1896tW7T8+7/fm3j75vJUfffv72rIdKuayrIs7wGX0p0ZXisp5/lrLxi2+G7JzON/TNFxvt/JeQsc9GihhXHo77DC+YHT0h0fULGVZ8Zu5TK4ex+ukZ1yL2wqvE2aif+MSn6JcYlvh1i0RZS+n9nYHFZ6ard8Wjp+0bid7u1R8Tc+5K8Jlde9c2mpQWr7V75bJbErV5+js+sx2oxP1PdSNJZastpkQ86ic+CT4JwSch+CT4JASfBJ+E4JMQfBJ8EoJPgk9C8EkIPgk+CcEnwSch+CQEnwSfoyVvld5mNNCiPDX1sxbGBZ+upGVgsf4EPvHpms+pX8pAy6UfLPZaPvvLAb2cEnzm7bP4z1sfXNryQctzi6mf+HTN5+KBlhLLxf/yy0vxiU/nfBYXSV9O9YodHp/4dM7nB5eWHj+3/4MWfOLTxfnncwMtU3956eK38IlPF9fvX05t+Wyq5731XMsA63d8Enzik+CTEHwSfBKCT4JPfBJ8EoJPgk9C8EnwiU+CT0LwSfBJSH4+CXEj/CdKCCGEEEIIIYQQQgghhBBCkvP/IYGkR1umJRcAAAAASUVORK5CYII=;" vertex="1" parent="WIyWlLk6GJQsqaUBKTNV-1">
          <mxGeometry x="1040" y="30" width="491" height="520" as="geometry" />
        </mxCell>
        <mxCell id="XwcIRMb4cHmLQoLkg6og-2" value="server" style="shape=umlLifeline;perimeter=lifelinePerimeter;whiteSpace=wrap;html=1;container=1;collapsible=0;recursiveResize=0;outlineConnect=0;" vertex="1" parent="WIyWlLk6GJQsqaUBKTNV-1">
          <mxGeometry x="110" y="30" width="100" height="780" as="geometry" />
        </mxCell>
        <mxCell id="XwcIRMb4cHmLQoLkg6og-10" value="" style="endArrow=block;startArrow=block;endFill=1;startFill=1;html=1;rounded=0;" edge="1" parent="XwcIRMb4cHmLQoLkg6og-2" target="XwcIRMb4cHmLQoLkg6og-3">
          <mxGeometry width="160" relative="1" as="geometry">
            <mxPoint x="50" y="80" as="sourcePoint" />
            <mxPoint x="210" y="80" as="targetPoint" />
          </mxGeometry>
        </mxCell>
        <mxCell id="XwcIRMb4cHmLQoLkg6og-11" value="TCP三次握手" style="edgeLabel;html=1;align=center;verticalAlign=middle;resizable=0;points=[];" vertex="1" connectable="0" parent="XwcIRMb4cHmLQoLkg6og-10">
          <mxGeometry x="-0.1322" relative="1" as="geometry">
            <mxPoint x="20" as="offset" />
          </mxGeometry>
        </mxCell>
        <mxCell id="XwcIRMb4cHmLQoLkg6og-30" value="Key Exchange Init" style="html=1;verticalAlign=bottom;endArrow=block;rounded=0;" edge="1" parent="XwcIRMb4cHmLQoLkg6og-2" target="XwcIRMb4cHmLQoLkg6og-3">
          <mxGeometry width="80" relative="1" as="geometry">
            <mxPoint x="50" y="390" as="sourcePoint" />
            <mxPoint x="130" y="390" as="targetPoint" />
          </mxGeometry>
        </mxCell>
        <mxCell id="XwcIRMb4cHmLQoLkg6og-3" value="client" style="shape=umlLifeline;perimeter=lifelinePerimeter;whiteSpace=wrap;html=1;container=1;collapsible=0;recursiveResize=0;outlineConnect=0;fontColor=#000000;" vertex="1" parent="WIyWlLk6GJQsqaUBKTNV-1">
          <mxGeometry x="480" y="30" width="190" height="780" as="geometry" />
        </mxCell>
        <mxCell id="XwcIRMb4cHmLQoLkg6og-24" value="版本协议交换" style="text;html=1;strokeColor=none;fillColor=none;align=center;verticalAlign=middle;whiteSpace=wrap;rounded=0;" vertex="1" parent="XwcIRMb4cHmLQoLkg6og-3">
          <mxGeometry x="100" y="180" width="100" height="60" as="geometry" />
        </mxCell>
        <mxCell id="XwcIRMb4cHmLQoLkg6og-6" value="Elliptic Curve Diffie-Hellman Key Exchange Reply, New Keys" style="html=1;verticalAlign=bottom;endArrow=block;rounded=0;" edge="1" parent="XwcIRMb4cHmLQoLkg6og-3" source="XwcIRMb4cHmLQoLkg6og-2" target="XwcIRMb4cHmLQoLkg6og-3">
          <mxGeometry width="80" relative="1" as="geometry">
            <mxPoint x="-320" y="200" as="sourcePoint" />
            <mxPoint x="-240" y="200" as="targetPoint" />
            <Array as="points">
              <mxPoint x="-70" y="510" />
              <mxPoint x="10" y="510" />
            </Array>
          </mxGeometry>
        </mxCell>
        <mxCell id="XwcIRMb4cHmLQoLkg6og-28" value="" style="group" vertex="1" connectable="0" parent="XwcIRMb4cHmLQoLkg6og-3">
          <mxGeometry x="-50" y="450" width="80" height="120" as="geometry" />
        </mxCell>
        <mxCell id="XwcIRMb4cHmLQoLkg6og-13" value="New Keys" style="html=1;verticalAlign=bottom;endArrow=open;dashed=1;endSize=8;rounded=0;" edge="1" parent="XwcIRMb4cHmLQoLkg6og-28" source="XwcIRMb4cHmLQoLkg6og-3" target="XwcIRMb4cHmLQoLkg6og-2">
          <mxGeometry relative="1" as="geometry">
            <mxPoint x="100" y="119.99999999999999" as="sourcePoint" />
            <mxPoint x="20" y="119.99999999999999" as="targetPoint" />
            <Array as="points">
              <mxPoint y="119.99999999999999" />
            </Array>
          </mxGeometry>
        </mxCell>
        <mxCell id="XwcIRMb4cHmLQoLkg6og-12" value="Elliptic Curve Diffie-Hellman Key Exchange Init" style="html=1;verticalAlign=bottom;endArrow=open;dashed=1;endSize=8;rounded=0;" edge="1" parent="XwcIRMb4cHmLQoLkg6og-28" source="XwcIRMb4cHmLQoLkg6og-3" target="XwcIRMb4cHmLQoLkg6og-2">
          <mxGeometry relative="1" as="geometry">
            <mxPoint x="100" as="sourcePoint" />
            <mxPoint x="20" as="targetPoint" />
            <Array as="points">
              <mxPoint x="80" />
            </Array>
          </mxGeometry>
        </mxCell>
        <mxCell id="XwcIRMb4cHmLQoLkg6og-29" value="Key Exchange Init" style="html=1;verticalAlign=bottom;endArrow=open;dashed=1;endSize=8;rounded=0;" edge="1" parent="XwcIRMb4cHmLQoLkg6og-3" target="XwcIRMb4cHmLQoLkg6og-2">
          <mxGeometry relative="1" as="geometry">
            <mxPoint x="90" y="330" as="sourcePoint" />
            <mxPoint x="10" y="330" as="targetPoint" />
          </mxGeometry>
        </mxCell>
        <mxCell id="XwcIRMb4cHmLQoLkg6og-38" value="&lt;font color=&quot;#000000&quot;&gt;公钥、密码。&lt;/font&gt;" style="text;html=1;strokeColor=none;fillColor=none;align=center;verticalAlign=middle;whiteSpace=wrap;rounded=0;fontColor=#FF3333;" vertex="1" parent="XwcIRMb4cHmLQoLkg6og-3">
          <mxGeometry x="110" y="670" width="60" height="30" as="geometry" />
        </mxCell>
        <mxCell id="XwcIRMb4cHmLQoLkg6og-5" value="版本信息(SSH-2.0-nsssh2_7.0.0019 NetSarang Computer, Inc.)" style="html=1;verticalAlign=bottom;endArrow=open;dashed=1;endSize=8;rounded=0;" edge="1" parent="WIyWlLk6GJQsqaUBKTNV-1" source="XwcIRMb4cHmLQoLkg6og-3" target="XwcIRMb4cHmLQoLkg6og-2">
          <mxGeometry x="-0.0018" y="-10" relative="1" as="geometry">
            <mxPoint x="440" y="140" as="sourcePoint" />
            <mxPoint x="360" y="140" as="targetPoint" />
            <Array as="points">
              <mxPoint x="460" y="270" />
              <mxPoint x="360" y="270" />
            </Array>
            <mxPoint as="offset" />
          </mxGeometry>
        </mxCell>
        <mxCell id="XwcIRMb4cHmLQoLkg6og-4" value="&lt;span style=&quot;font-size: 11px&quot;&gt;版本信息(SSH-2.0-wolfSSHv1.4.5)&lt;/span&gt;" style="html=1;verticalAlign=bottom;endArrow=block;rounded=0;" edge="1" parent="WIyWlLk6GJQsqaUBKTNV-1" source="XwcIRMb4cHmLQoLkg6og-2" target="XwcIRMb4cHmLQoLkg6og-3">
          <mxGeometry width="80" relative="1" as="geometry">
            <mxPoint x="160" y="90" as="sourcePoint" />
            <mxPoint x="240" y="90" as="targetPoint" />
            <Array as="points">
              <mxPoint x="440" y="210" />
            </Array>
          </mxGeometry>
        </mxCell>
        <mxCell id="XwcIRMb4cHmLQoLkg6og-26" value="客户端支持的加密算法列表、MAC算法列表等" style="text;html=1;strokeColor=none;fillColor=none;align=center;verticalAlign=middle;whiteSpace=wrap;rounded=0;" vertex="1" parent="WIyWlLk6GJQsqaUBKTNV-1">
          <mxGeometry x="590" y="350" width="140" height="30" as="geometry" />
        </mxCell>
        <mxCell id="XwcIRMb4cHmLQoLkg6og-27" value="服务端支持的加密算法列表、MAC算法列表等" style="text;html=1;strokeColor=none;fillColor=none;align=center;verticalAlign=middle;whiteSpace=wrap;rounded=0;" vertex="1" parent="WIyWlLk6GJQsqaUBKTNV-1">
          <mxGeometry x="585" y="410" width="150" height="30" as="geometry" />
        </mxCell>
        <mxCell id="XwcIRMb4cHmLQoLkg6og-22" value="" style="endArrow=block;startArrow=block;endFill=1;startFill=1;html=1;rounded=0;" edge="1" parent="WIyWlLk6GJQsqaUBKTNV-1">
          <mxGeometry width="160" relative="1" as="geometry">
            <mxPoint x="159.5" y="710" as="sourcePoint" />
            <mxPoint x="574.5" y="710" as="targetPoint" />
            <Array as="points">
              <mxPoint x="350" y="710" />
              <mxPoint x="370" y="710" />
            </Array>
          </mxGeometry>
        </mxCell>
        <mxCell id="XwcIRMb4cHmLQoLkg6og-23" value="使用key加密的用户认证阶段" style="edgeLabel;html=1;align=center;verticalAlign=middle;resizable=0;points=[];" vertex="1" connectable="0" parent="XwcIRMb4cHmLQoLkg6og-22">
          <mxGeometry x="-0.078" relative="1" as="geometry">
            <mxPoint x="20" as="offset" />
          </mxGeometry>
        </mxCell>
        <mxCell id="XwcIRMb4cHmLQoLkg6og-31" value="" style="shape=curlyBracket;whiteSpace=wrap;html=1;rounded=1;flipH=1;" vertex="1" parent="WIyWlLk6GJQsqaUBKTNV-1">
          <mxGeometry x="760" y="360" width="20" height="240" as="geometry" />
        </mxCell>
        <mxCell id="XwcIRMb4cHmLQoLkg6og-33" value="密钥协商" style="text;html=1;strokeColor=none;fillColor=none;align=center;verticalAlign=middle;whiteSpace=wrap;rounded=0;" vertex="1" parent="WIyWlLk6GJQsqaUBKTNV-1">
          <mxGeometry x="790" y="450" width="70" height="60" as="geometry" />
        </mxCell>
        <mxCell id="XwcIRMb4cHmLQoLkg6og-35" value="客户端的临时D-H密钥对的公钥" style="text;html=1;strokeColor=none;fillColor=none;align=center;verticalAlign=middle;whiteSpace=wrap;rounded=0;" vertex="1" parent="WIyWlLk6GJQsqaUBKTNV-1">
          <mxGeometry x="590" y="470" width="140" height="30" as="geometry" />
        </mxCell>
        <mxCell id="XwcIRMb4cHmLQoLkg6og-36" value="服务端的公钥、&lt;font color=&quot;#ff3333&quot;&gt;服务端的临时D-H密钥对的公钥、签名&lt;/font&gt;" style="text;html=1;strokeColor=none;fillColor=none;align=center;verticalAlign=middle;whiteSpace=wrap;rounded=0;" vertex="1" parent="WIyWlLk6GJQsqaUBKTNV-1">
          <mxGeometry x="590" y="530" width="140" height="30" as="geometry" />
        </mxCell>
        <mxCell id="XwcIRMb4cHmLQoLkg6og-37" value="&lt;font color=&quot;#ff3333&quot;&gt;会话密钥key&lt;/font&gt;" style="text;html=1;strokeColor=none;fillColor=none;align=center;verticalAlign=middle;whiteSpace=wrap;rounded=0;" vertex="1" parent="WIyWlLk6GJQsqaUBKTNV-1">
          <mxGeometry x="615" y="585" width="90" height="30" as="geometry" />
        </mxCell>
        <mxCell id="XwcIRMb4cHmLQoLkg6og-39" value="" style="endArrow=block;startArrow=block;endFill=1;startFill=1;html=1;rounded=0;" edge="1" parent="WIyWlLk6GJQsqaUBKTNV-1">
          <mxGeometry width="160" relative="1" as="geometry">
            <mxPoint x="160" y="780" as="sourcePoint" />
            <mxPoint x="575" y="780" as="targetPoint" />
            <Array as="points">
              <mxPoint x="350.5" y="780" />
              <mxPoint x="370.5" y="780" />
            </Array>
          </mxGeometry>
        </mxCell>
        <mxCell id="XwcIRMb4cHmLQoLkg6og-40" value="会话阶段" style="edgeLabel;html=1;align=center;verticalAlign=middle;resizable=0;points=[];" vertex="1" connectable="0" parent="XwcIRMb4cHmLQoLkg6og-39">
          <mxGeometry x="-0.078" relative="1" as="geometry">
            <mxPoint x="20" as="offset" />
          </mxGeometry>
        </mxCell>
      </root>
    </mxGraphModel>
  </diagram>
</mxfile>
